<mxfile host="app.diagrams.net" modified="2023-10-10T14:46:03.756Z" agent="Mozilla/5.0 (X11; Linux x86_64; rv:109.0) Gecko/20100101 Firefox/114.0" version="22.0.4" etag="S-EwyiBM0MZcdMUI8fLb" type="github">
  <diagram name="PÃ¡gina-1" id="7Yk7cIG_3kOX1iZZ5KlJ">
    <mxGraphModel>
      <root>
        <mxCell id="0" />
        <mxCell id="1" parent="0" />
      </root>
    </mxGraphModel>
  </diagram>
</mxfile>
